<svg xmlns="http://www.w3.org/2000/svg" width="1200" height="675" viewBox="0 0 1200 675" role="img" aria-labelledby="title desc">
  <title id="title">Templates deck builder</title>
  <desc id="desc">Illustration for a PowerPoint-style deck builder.</desc>
  <rect width="1200" height="675" rx="32" fill="#f7f5ef"/>
  <rect x="90" y="80" width="1020" height="515" rx="26" fill="#ffffff" stroke="#ded9cf" stroke-width="4"/>
  <rect x="130" y="125" width="220" height="425" rx="18" fill="#fbfaf7" stroke="#ded9cf" stroke-width="3"/>
  <rect x="390" y="125" width="680" height="425" rx="18" fill="#fbfaf7" stroke="#ded9cf" stroke-width="3"/>
  <g fill="#ffffff" stroke="#ded9cf" stroke-width="3">
    <rect x="155" y="155" width="170" height="86" rx="12"/>
    <rect x="155" y="265" width="170" height="86" rx="12"/>
    <rect x="155" y="375" width="170" height="86" rx="12"/>
  </g>
  <rect x="435" y="175" width="280" height="28" rx="14" fill="#16202a"/>
  <rect x="435" y="235" width="420" height="18" rx="9" fill="#0f766e"/>
  <rect x="435" y="280" width="360" height="18" rx="9" fill="#aac6c2"/>
  <rect x="435" y="325" width="470" height="18" rx="9" fill="#ded9cf"/>
  <rect x="435" y="410" width="575" height="86" rx="16" fill="#e5f3f1" stroke="#aac6c2" stroke-width="3"/>
  <text x="130" y="620" fill="#5c6773" font-family="Arial, Helvetica, sans-serif" font-size="26" font-weight="700">Deck builder</text>
</svg>
