<svg xmlns="http://www.w3.org/2000/svg" width="1200" height="675" viewBox="0 0 1200 675" role="img" aria-labelledby="title desc">
  <title id="title">Commercial tools grid</title>
  <desc id="desc">Illustration for a grid of commercial tools and cards.</desc>
  <rect width="1200" height="675" rx="32" fill="#f7f5ef"/>
  <rect x="72" y="72" width="1056" height="531" rx="28" fill="#fff" stroke="#ded9cf" stroke-width="4"/>
  <g fill="#fbfaf7" stroke="#ded9cf" stroke-width="3">
    <rect x="115" y="130" width="290" height="170" rx="18"/>
    <rect x="455" y="130" width="290" height="170" rx="18"/>
    <rect x="795" y="130" width="290" height="170" rx="18"/>
    <rect x="115" y="355" width="290" height="170" rx="18"/>
    <rect x="455" y="355" width="290" height="170" rx="18"/>
    <rect x="795" y="355" width="290" height="170" rx="18"/>
  </g>
  <g fill="#0f766e">
    <rect x="145" y="165" width="105" height="18" rx="9"/>
    <rect x="485" y="165" width="105" height="18" rx="9"/>
    <rect x="825" y="165" width="105" height="18" rx="9"/>
    <rect x="145" y="390" width="105" height="18" rx="9"/>
    <rect x="485" y="390" width="105" height="18" rx="9"/>
    <rect x="825" y="390" width="105" height="18" rx="9"/>
  </g>
  <g fill="#ded9cf">
    <rect x="145" y="215" width="200" height="16" rx="8"/>
    <rect x="145" y="250" width="160" height="16" rx="8"/>
    <rect x="485" y="215" width="200" height="16" rx="8"/>
    <rect x="485" y="250" width="160" height="16" rx="8"/>
    <rect x="825" y="215" width="200" height="16" rx="8"/>
    <rect x="825" y="250" width="160" height="16" rx="8"/>
    <rect x="145" y="440" width="200" height="16" rx="8"/>
    <rect x="145" y="475" width="160" height="16" rx="8"/>
    <rect x="485" y="440" width="200" height="16" rx="8"/>
    <rect x="485" y="475" width="160" height="16" rx="8"/>
    <rect x="825" y="440" width="200" height="16" rx="8"/>
    <rect x="825" y="475" width="160" height="16" rx="8"/>
  </g>
  <text x="115" y="585" fill="#5c6773" font-family="Arial, Helvetica, sans-serif" font-size="26" font-weight="700">Tools overview</text>
</svg>
